<?xml version="1.0" standalone="no"?><!DOCTYPE svg PUBLIC "-//W3C//DTD SVG 1.1//EN" "http://www.w3.org/Graphics/SVG/1.1/DTD/svg11.dtd"><svg t="1500427251005" class="icon" style="" viewBox="0 0 1024 1024" version="1.1" xmlns="http://www.w3.org/2000/svg" p-id="1875" xmlns:xlink="http://www.w3.org/1999/xlink" width="200" height="200"><defs><style type="text/css"></style></defs><path d="M476.16 102.4l71.68 0 0 204.8-71.68 0 0-204.8Z" fill="#E9E9E9" p-id="1876"></path><path d="M685.760604 139.359897l62.076701 35.84-102.4 177.362002-62.076701-35.84 102.4-177.362002Z" fill="#989697" p-id="1877"></path><path d="M848.800103 276.168408l35.84 62.076701-177.362002 102.4-35.84-62.076701 177.362002-102.4Z" fill="#9B999A" p-id="1878"></path><path d="M921.6 476.16l0 71.68-204.8 0 0-71.68 204.8 0Z" fill="#A3A1A2" p-id="1879"></path><path d="M884.640103 685.763902l-35.84 62.076701-177.362002-102.4 35.84-62.076701 177.362002 102.4Z" fill="#ABA9AA" p-id="1880"></path><path d="M747.852913 848.800103l-62.076701 35.84-102.4-177.362002 62.076701-35.84 102.4 177.362002Z" fill="#B2B2B2" p-id="1881"></path><path d="M547.84 921.6l-71.68 0 0-204.8 71.68 0 0 204.8Z" fill="#BAB8B9" p-id="1882"></path><path d="M338.223788 884.640103l-62.076701-35.84 102.4-177.362002 62.076701 35.84-102.4 177.362002Z" fill="#C2C0C1" p-id="1883"></path><path d="M175.199897 747.840603l-35.84-62.076701 177.362002-102.4 35.84 62.076701-177.362002 102.4Z" fill="#CBCBCB" p-id="1884"></path><path d="M102.4 547.84l0-71.68 204.8 0 0 71.68-204.8 0Z" fill="#D2D2D2" p-id="1885"></path><path d="M139.359897 338.245109l35.84-62.076701 177.362002 102.4-35.84 62.076701-177.362002-102.4Z" fill="#DADADA" p-id="1886"></path><path d="M276.162695 175.199897l62.076701-35.84 102.4 177.362002-62.076701 35.84-102.4-177.362002Z" fill="#E2E2E2" p-id="1887"></path></svg>